<svg width="132" height="132" viewBox="0 0 132 132" fill="none" xmlns="http://www.w3.org/2000/svg">
<path fill-rule="evenodd" clip-rule="evenodd" d="M47.98 20.0553C47.9828 16.667 50.7887 13.9517 54.1752 14.0601L91.4072 15.2528C95.1847 15.3738 98.1825 18.4718 98.1794 22.2513L98.1112 106.265C98.1076 110.7 94.0337 114.015 89.6912 113.118L52.6983 105.474C49.911 104.898 47.9131 102.443 47.9154 99.5964L47.98 20.0553ZM50.0352 27.6606C50.0373 25.9548 51.4594 24.5932 53.1636 24.6653L89.8835 26.219C92.0241 26.3095 93.7123 28.0707 93.7124 30.2132L93.7144 104.798C93.7144 106.647 92.0569 108.057 90.2314 107.76L52.4664 101.62C51.0138 101.383 49.9476 100.128 49.9494 98.6564L50.0352 27.6606ZM63.3398 18.6942C62.4314 18.6534 61.6759 19.3853 61.6877 20.2944C61.6986 21.1323 62.3611 21.8162 63.1981 21.8537L75.8607 22.4214C76.769 22.4621 77.5245 21.7303 77.5128 20.8211C77.5019 19.9833 76.8394 19.2993 76.0023 19.2618L63.3398 18.6942Z" fill="#437884"/>
<path d="M96.5398 110.157C95.144 112.821 91.1543 114.666 89.6473 114.838L89.1313 110.378L91.8465 108.572C92.7106 108.593 95.3604 108.27 96.5398 110.157Z" fill="#437884"/>
<path fill-rule="evenodd" clip-rule="evenodd" d="M48.0529 20.0416C48.0547 16.6479 50.8685 13.9313 54.2601 14.0485L88.9234 15.2466C92.6945 15.377 95.6836 18.4729 95.6815 22.2463L95.6345 107.815C95.632 112.29 91.4887 115.614 87.1196 114.645L52.7098 107.018C49.9618 106.409 48.0067 103.971 48.0082 101.157L48.0529 20.0416ZM51.4958 26.7319C51.4977 25.5898 52.4541 24.6813 53.5948 24.7379L85.5622 26.3231C87.6926 26.4288 89.3652 28.1874 89.3641 30.3204L89.3253 100.759C89.3243 102.639 87.613 104.055 85.7654 103.704L53.8179 97.6347C52.4003 97.3654 51.3753 96.1251 51.3778 94.6822L51.4958 26.7319ZM63.3407 18.6194C62.4316 18.5786 61.6755 19.311 61.6872 20.2209C61.6981 21.0594 62.3611 21.7438 63.1988 21.7814L75.8589 22.3495C76.7679 22.3903 77.5241 21.6579 77.5123 20.748C77.5014 19.9095 76.8385 19.2251 76.0008 19.1875L63.3407 18.6194Z" fill="#68A5B3"/>
<path d="M33.3529 79.7651C26.2717 66.3092 18.8238 49.5259 18.1288 43.8318C17.3183 39.9448 22.558 35.331 27.6372 47.1061C31.3386 55.6869 37.1447 60.5594 43.4393 61.5957C49.7338 62.6321 64.9179 56.4437 70.4686 55.3812C78.2385 53.8939 79.865 54.1207 80.5696 55.9659C80.9884 57.0628 79.5859 58.6757 76.5998 60.2769C73.6137 61.878 55.1387 68.9978 56.1396 77.6779C57.1405 86.358 77.08 95.4632 79.1347 96.1612C81.1895 96.8591 91.8176 99.6406 88.8476 104.72C86.1223 109.381 64.0205 97.8268 54.1969 93.2123C53.6224 92.9424 52.9487 93.7527 53.2853 94.2907C55.8132 98.3308 60.8171 106.726 63.6418 110.111C69.1629 116.727 69.0029 121.573 64.4066 121.338C60.289 121.128 41.9679 96.1357 33.3529 79.7651Z" fill="#FFC977"/>
<circle cx="45.3091" cy="49.6371" r="8.37958" transform="rotate(-15.3527 45.3091 49.6371)" fill="#FFC977"/>
</svg>
